<svg width="202.785" height="73.048" viewBox="0 0 202.785 73.048" xmlns="http://www.w3.org/2000/svg"><g id="svgGroup" stroke-linecap="round" fill-rule="evenodd" font-size="9pt" stroke="#ffffff" stroke-width="0.25mm" fill="#ff8000" style="stroke:#ffffff;stroke-width:0.25mm;fill:#ff8000"><path d="M 69.971 0.977 L 77.93 0.977 L 104.15 63.721 L 130.469 0.977 L 138.477 0.977 L 138.477 72.071 L 132.471 72.071 L 132.471 41.114 L 132.959 9.376 L 106.494 72.071 L 101.855 72.071 L 75.488 9.62 L 75.977 40.919 L 75.977 72.071 L 69.971 72.071 L 69.971 0.977 Z M 202.344 21.241 L 196.289 21.241 A 17.229 17.229 0 0 0 195.467 15.801 A 14.217 14.217 0 0 0 191.309 9.547 A 16.896 16.896 0 0 0 183.973 5.803 Q 181.212 5.128 177.93 5.128 A 29.73 29.73 0 0 0 172.716 5.558 Q 168.114 6.378 164.941 8.765 Q 160.118 12.395 160.107 18.236 A 14.126 14.126 0 0 0 160.107 18.262 A 10.615 10.615 0 0 0 163.554 26.329 A 13.486 13.486 0 0 0 164.453 27.1 A 21.477 21.477 0 0 0 167.679 29.158 Q 171.212 31.029 176.567 32.618 A 85.125 85.125 0 0 0 178.369 33.131 A 113.005 113.005 0 0 1 183.77 34.741 Q 189.442 36.598 192.871 38.551 Q 197.803 41.358 200.293 45.264 A 15.789 15.789 0 0 1 202.586 51.611 A 20.453 20.453 0 0 1 202.783 54.493 Q 202.783 62.613 196.508 67.629 A 20.749 20.749 0 0 1 196.069 67.969 Q 189.355 73.048 178.369 73.048 A 36.673 36.673 0 0 1 169.246 71.945 A 32.039 32.039 0 0 1 164.575 70.362 A 24.627 24.627 0 0 1 159.511 67.487 A 19.001 19.001 0 0 1 155.054 62.843 Q 151.807 58.009 151.807 51.759 L 157.813 51.759 A 16.153 16.153 0 0 0 158.73 57.32 A 13.888 13.888 0 0 0 163.428 63.624 Q 168.467 67.524 176.496 67.924 A 37.665 37.665 0 0 0 178.369 67.969 A 30.614 30.614 0 0 0 183.857 67.507 Q 188.458 66.668 191.699 64.307 Q 196.729 60.645 196.729 54.591 A 13.544 13.544 0 0 0 196.095 50.351 A 10.983 10.983 0 0 0 192.578 45.24 A 18.413 18.413 0 0 0 189.699 43.331 Q 186.52 41.583 181.464 39.929 A 100.85 100.85 0 0 0 177.393 38.697 A 98.71 98.71 0 0 1 171.657 36.909 Q 164.929 34.566 161.279 31.934 A 18.436 18.436 0 0 1 156.771 27.449 A 15.61 15.61 0 0 1 154.053 18.36 A 15.659 15.659 0 0 1 159.193 6.427 A 20.331 20.331 0 0 1 160.767 5.103 Q 167.48 0.001 177.93 0.001 A 31.489 31.489 0 0 1 185.032 0.772 A 25.889 25.889 0 0 1 190.601 2.735 A 21.81 21.81 0 0 1 196.544 6.929 A 19.816 19.816 0 0 1 199.268 10.352 A 20.008 20.008 0 0 1 202.344 21.241 Z M 53.271 72.071 L 45.898 52.149 L 13.623 52.149 L 6.299 72.071 L 0 72.071 L 26.904 0.977 L 32.617 0.977 L 59.521 72.071 L 53.271 72.071 Z M 29.736 8.302 L 15.479 47.022 L 43.994 47.022 L 29.736 8.302 Z" vector-effect="non-scaling-stroke"/></g></svg>